<?xml version="1.0" standalone="no"?><!DOCTYPE svg PUBLIC "-//W3C//DTD SVG 1.1//EN" "http://www.w3.org/Graphics/SVG/1.1/DTD/svg11.dtd"><svg t="1654186759690" class="icon" viewBox="0 0 1024 1024" version="1.1" xmlns="http://www.w3.org/2000/svg" p-id="13262" xmlns:xlink="http://www.w3.org/1999/xlink" width="200" height="200"><defs><style type="text/css">@font-face { font-family: feedback-iconfont; src: url("//at.alicdn.com/t/font_1031158_u69w8yhxdu.woff2?t=1630033759944") format("woff2"), url("//at.alicdn.com/t/font_1031158_u69w8yhxdu.woff?t=1630033759944") format("woff"), url("//at.alicdn.com/t/font_1031158_u69w8yhxdu.ttf?t=1630033759944") format("truetype"); }
</style></defs><path d="M512 512.002m-511.998 0a511.998 511.998 0 1 0 1023.996 0 511.998 511.998 0 1 0-1023.996 0Z" fill="#1669AD" p-id="13263"></path><path d="M511.998 512.002m-407.00441 0a407.00441 407.00441 0 1 0 814.00882 0 407.00441 407.00441 0 1 0-814.00882 0Z" fill="#2A81C2" p-id="13264"></path><path d="M508.468014 634.191523l144.335436-66.011742 43.999828-174.949317-12.433951-97.615619-62.941754-89.331651-135.67547-78.423693-14.999942 3.119987-109.045574 22.677912-13.795946 24.765903h-20.635919l-52.035797 39.239847-34.769864 87.743657-11.151957 84.793669 20.819919 143.675439 153.5354 100.091609v26.369897l-149.897414 70.887723v97.06762a52.437795 52.437795 0 0 0 0.183999 4.181984c0.066 0.867997 0.159999 1.731993 0.273999 2.59399 0.032 0.239999 0.054 0.479998 0.09 0.717997 0.155999 1.073996 0.343999 2.145992 0.561997 3.209988 0.042 0.207999 0.098 0.413998 0.14 0.621997 0.195999 0.887997 0.413998 1.773993 0.655997 2.65399 0.074 0.269999 0.143999 0.537998 0.221999 0.803997a58.539771 58.539771 0 0 0 2.53599 7.017972c0.397998 0.917996 0.819997 1.829993 1.265996 2.73799 0.074 0.147999 0.143999 0.299999 0.217999 0.449998 0.539998 1.073996 1.109996 2.143992 1.717993 3.205987 0.028 0.054 0.062 0.108 0.094 0.162 0.573998 0.995996 1.179995 1.983992 1.811993 2.967988l0.295998 0.457998a78.367694 78.367694 0 0 0 4.511983 6.219976l0.191999 0.237999a87.991656 87.991656 0 0 0 2.58599 3.063988 100.175609 100.175609 0 0 0 5.875977 6.091976l0.147999 0.14c33.929867 32.269874 101.311604 54.261788 178.913301 54.261788 111.725564 0 202.29921-45.577822 202.29921-101.801603v-97.06762l-149.901414-70.887723v-26.143898z" fill="#1669AD" p-id="13265"></path><path d="M477.398135 615.031598l-171.335331-111.695564-20.819918-143.675439 11.155956-84.793669 34.769864-87.743657L383.200503 147.881422h20.63592l13.795946-24.763903L541.679884 97.31962l135.67947 78.423694 62.935754 89.331651 12.433952 97.615618-43.999828 174.947317-167.029348 76.393701z" fill="#BE3D27" p-id="13266"></path><path d="M740.295108 265.074965L677.359354 175.743314 541.679884 97.31962l-14.999941 3.119988 130.279491 75.303706 62.937754 89.331651 12.433951 97.615618-43.999828 174.947317-167.031347 76.393701-44.377827 0.689998 0.475998 0.309999 64.301749-0.999997 167.029348-76.393701 43.999828-174.947317z" fill="#E65439" p-id="13267"></path><path d="M564.397795 629.79554h-104.79559l-149.901415 70.887723v97.067621c0 56.22378 90.573646 101.801602 202.29921 101.801602s202.29521-45.577822 202.29521-101.801602v-97.067621l-149.897415-70.887723z" fill="#EDC849" p-id="13268"></path><path d="M339.778673 851.176675v-150.491412l148.851418-70.887723h-29.027886l-149.901415 70.887723v97.067621c0 19.595923 11.009957 37.893852 30.077883 53.423791z" fill="#DDAE2A" p-id="13269"></path><path d="M564.397795 637.871508L512 757.239042l-52.397795-119.601533v-149.331416h104.79559z" fill="#DE8729" p-id="13270"></path><path d="M547.471861 488.306093v188.123265l16.925934-38.55785v-149.565415z" fill="#F79D22" p-id="13271"></path><path d="M677.359354 295.328846h-0.479998c0.285999-3.965985 0.479998-7.957969 0.479998-11.999953 0-91.325643-74.035711-165.359354-165.359354-165.359354-91.327643 0-165.359354 74.033711-165.359354 165.359354 0 4.041984 0.195999 8.033969 0.479998 11.999953h-0.479998l0.945996 5.629978a164.065359 164.065359 0 0 0 3.229988 19.233925l31.987875 190.445256 92.417639 96.769622H548.773856l92.421639-96.769622 31.983875-190.445256a164.631357 164.631357 0 0 0 3.233988-19.233925l0.945996-5.629978z" fill="#F79D22" p-id="13272"></path><path d="M406.91441 295.328846H346.640646l36.163859 215.309159 92.417639 96.769622h13.405947l-58.73377-96.769622z" fill="#DE8729" p-id="13273"></path><path d="M598.889661 377.558525m-1.639994 0a1.639994 1.639994 0 1 0 3.279987 0 1.639994 1.639994 0 1 0-3.279987 0Z" fill="#DE8729" p-id="13274"></path><path d="M499.20005 467.052176l9.999961-12.159953v-110.591568l-10.571959-32.141874h-9.999961l10.571959 32.475873zM531.699923 454.892223H509.200011l-9.999961 12.159953h42.499834z" fill="#DE8729" p-id="13275"></path><path d="M437.69429 386.724489m-59.451768 0a59.451768 59.451768 0 1 0 118.903536 0 59.451768 59.451768 0 1 0-118.903536 0Z" fill="#2A81C2" p-id="13276"></path><path d="M437.69629 322.272741c-35.539861 0-64.453748 28.913887-64.453748 64.453748s28.913887 64.453748 64.453748 64.453749 64.449748-28.913887 64.449748-64.453749-28.911887-64.453748-64.449748-64.453748z m0 118.905536c-30.027883 0-54.453787-24.427905-54.453787-54.453788s24.425905-54.453787 54.453787-54.453787c30.023883 0 54.449787 24.427905 54.449788 54.453787s-24.427905 54.453787-54.449788 54.453788z" fill="#494A4A" p-id="13277"></path><path d="M590.197695 386.724489m-59.451768 0a59.451768 59.451768 0 1 0 118.903535 0 59.451768 59.451768 0 1 0-118.903535 0Z" fill="#2A81C2" p-id="13278"></path><path d="M590.199695 322.272741c-35.539861 0-64.453748 28.913887-64.453749 64.453748S554.659833 451.178238 590.199695 451.178238s64.449748-28.913887 64.449748-64.453749-28.911887-64.451748-64.449748-64.451748z m0 118.905536c-30.027883 0-54.453787-24.427905-54.453788-54.453788s24.425905-54.453787 54.453788-54.453787c30.023883 0 54.449787 24.427905 54.449787 54.453787S620.221577 441.178277 590.199695 441.178277z" fill="#494A4A" p-id="13279"></path><path d="M437.69629 386.724489m-10.377959 0a10.377959 10.377959 0 1 0 20.755919 0 10.377959 10.377959 0 1 0-20.755919 0Z" fill="#1669AD" p-id="13280"></path><path d="M590.199695 386.724489m-10.37796 0a10.377959 10.377959 0 1 0 20.755919 0 10.377959 10.377959 0 1 0-20.755919 0Z" fill="#1669AD" p-id="13281"></path><path d="M528.097937 383.438502c-15.167941-9.481963-28.393889-0.263999-28.523888-0.169999l-5.815978-8.135968c0.761997-0.541998 18.863926-13.165949 39.639845-0.17l-5.299979 8.475967zM362.594584 372.558545h16.351936v9.999961h-16.351936zM649.647462 372.558545h16.355936v9.999961h-16.355936z" fill="#494A4A" p-id="13282"></path><path d="M427.52833 311.118785l71.061722 11.017957v-9.977961l-71.061722-11.019957z" fill="#DE8729" p-id="13283"></path><path d="M427.52833 311.118785l71.061722 11.017957v-9.977961l-71.061722-11.019957z" fill="#DE8729" p-id="13284"></path><path d="M364.472576 333.796696l67.835735-23.861907-4.713981-8.795965-67.835735 23.865906z" fill="#DE8729" p-id="13285"></path><path d="M520.449967 496.138062h-67.235737l9.843961 16.499936 57.391776 24.999902 57.389776-24.999902 9.843961-16.499936z" fill="#BE3D27" p-id="13286"></path><path d="M453.21423 496.138062l8.589966 14.395944h117.293542l8.585966-14.395944h-67.233737z" fill="#E8E9EC" p-id="13287"></path><path d="M359.758595 375.918532l13.483947-42.121836-2.47199-66.763739 38.495849-38.999848 79.36169-19.999922 93.973633 3.665986 48.66381 21.333917 34.737864 35.999859-8.179968 64.763747 8.179968 29.133886 29.261886-51.293799-29.261886-119.603533-33.12787-41.999836-62.609756-26.999895-71.67572-9.999961-60.893762 11.999954-31.429877 26.999894-53.999789 49.999805-21.999914 73.999711 4.99998 86.655661z" fill="#BE3D27" p-id="13288"></path><path d="M347.586642 301.138824l18.709927-53.215792 51.3358-51.089801 94.227632-19.797923 102.073601 19.999922 48.67181 42.665834 22.659911 61.43776-7.905969-66.355741-54.409787-58.239773-107.65358-22.457912-108.885575 27.175894-53.191792 59.767766z" fill="#3AB49C" p-id="13289"></path><path d="M610.765614 180.533295l12.183953-3.989985-107.65358-22.457912-108.885575 27.175894-53.191792 59.767766-5.631978 60.109766 18.709927-53.215792 51.3358-51.089801 94.227632-19.797923 102.073601 19.999922-3.167988-8.001968z" fill="#1B9D7E" p-id="13290"></path><path d="M834.264741 249.753024c-70.893723 0-128.367499 57.471776-128.367498 128.367499 0 41.327839 19.549924 78.069695 49.885805 101.547603l-81.519682 44.029828 106.581584-28.859887a127.839501 127.839501 0 0 0 53.417791 11.647955c70.893723 0 128.363499-57.471776 128.363499-128.367499s-57.467776-128.365499-128.361499-128.365499z" fill="#3AB49C" p-id="13291"></path><path d="M842.728708 308.332796c-21.487916-21.491916-56.33178-21.493916-77.823696-0.002s-21.487916 56.33378 0 77.823696c19.343924 19.343924 49.499807 21.265917 71.003723 5.787977l59.503767 59.503768a8.915965 8.915965 0 0 0 12.605951-12.607951l-59.499768-59.503768c15.47594-21.507916 13.553947-51.659798-5.789977-71.001722z m-12.061953 65.757743c-14.827942 14.829942-38.871848 14.825942-53.69579 0-14.827942-14.825942-14.827942-38.867848 0-53.697791 14.823942-14.825942 38.867848-14.825942 53.69579 0.002 14.823942 14.825942 14.823942 38.869848 0 53.695791z" fill="#E8E9EC" p-id="13292"></path></svg>